<?xml version="1.0" encoding="utf-8"?>
<!-- Generator: Adobe Illustrator 21.1.0, SVG Export Plug-In . SVG Version: 6.00 Build 0)  -->
<svg version="1.1" xmlns:x="&ns_extend;" xmlns:i="&ns_ai;" xmlns:graph="&ns_graphs;"
	 xmlns="http://www.w3.org/2000/svg" xmlns:xlink="http://www.w3.org/1999/xlink" x="0px" y="0px" viewBox="0 0 1286 880"
	 style="enable-background:new 0 0 1286 880;" xml:space="preserve">
<style type="text/css">
	.st0{fill:#26AAE2;}
	.st1{fill:#E6F5FA;}
	.st2{fill:#9BD9EF;}
	.st3{fill:#A0D1E6;}
	.st4{fill:#CDBCC8;}
	.st5{fill:#A3CBDF;}
	.st6{fill:#A1CEE2;}
	.st7{fill:#9DD5EB;}
	.st8{fill:#CAC9D3;}
	.st9{fill:#A3C9DD;}
	.st10{fill:#C5C4D1;}
	.st11{fill:#F2C3C2;}
	.st12{fill:#AAC6D9;}
	.st13{fill:#F0B3B5;}
	.st14{fill:#1DAED8;}
	.st15{fill:#1CAED8;}
	.st16{fill:#1CAFD9;}
	.st17{fill:#1CB0D7;}
	.st18{fill:#1CAFD6;}
	.st19{fill:#1CAFD7;}
	.st20{fill:#FFFFFF;}
</style>
<metadata><?xpacket begin="﻿" id="W5M0MpCehiHzreSzNTczkc9d"?>
<x:xmpmeta xmlns:x="adobe:ns:meta/" x:xmptk="Adobe XMP Core 5.6-c137 79.159768, 2016/08/11-13:24:42        ">
   <rdf:RDF xmlns:rdf="http://www.w3.org/1999/02/22-rdf-syntax-ns#">
      <rdf:Description rdf:about=""
            xmlns:xmp="http://ns.adobe.com/xap/1.0/"
            xmlns:xmpGImg="http://ns.adobe.com/xap/1.0/g/img/"
            xmlns:dc="http://purl.org/dc/elements/1.1/"
            xmlns:photoshop="http://ns.adobe.com/photoshop/1.0/"
            xmlns:xmpMM="http://ns.adobe.com/xap/1.0/mm/"
            xmlns:stEvt="http://ns.adobe.com/xap/1.0/sType/ResourceEvent#"
            xmlns:stRef="http://ns.adobe.com/xap/1.0/sType/ResourceRef#"
            xmlns:tiff="http://ns.adobe.com/tiff/1.0/"
            xmlns:exif="http://ns.adobe.com/exif/1.0/"
            xmlns:xmpTPg="http://ns.adobe.com/xap/1.0/t/pg/"
            xmlns:stDim="http://ns.adobe.com/xap/1.0/sType/Dimensions#"
            xmlns:xmpG="http://ns.adobe.com/xap/1.0/g/">
         <xmp:CreatorTool>Adobe Illustrator CC 2017 (Macintosh)</xmp:CreatorTool>
         <xmp:CreateDate>2019-03-13T00:25:48-05:00</xmp:CreateDate>
         <xmp:ModifyDate>2019-03-13T00:25:48-05:00</xmp:ModifyDate>
         <xmp:MetadataDate>2019-03-13T00:25:48-05:00</xmp:MetadataDate>
         <xmp:Thumbnails>
            <rdf:Alt>
               <rdf:li rdf:parseType="Resource">
                  <xmpGImg:width>256</xmpGImg:width>
                  <xmpGImg:height>176</xmpGImg:height>
                  <xmpGImg:format>JPEG</xmpGImg:format>
                  <xmpGImg:image>/9j/4AAQSkZJRgABAgEASABIAAD/7QAsUGhvdG9zaG9wIDMuMAA4QklNA+0AAAAAABAASAAAAAEA&#xA;AQBIAAAAAQAB/+4ADkFkb2JlAGTAAAAAAf/bAIQABgQEBAUEBgUFBgkGBQYJCwgGBggLDAoKCwoK&#xA;DBAMDAwMDAwQDA4PEA8ODBMTFBQTExwbGxscHx8fHx8fHx8fHwEHBwcNDA0YEBAYGhURFRofHx8f&#xA;Hx8fHx8fHx8fHx8fHx8fHx8fHx8fHx8fHx8fHx8fHx8fHx8fHx8fHx8fHx8f/8AAEQgAsAEAAwER&#xA;AAIRAQMRAf/EAaIAAAAHAQEBAQEAAAAAAAAAAAQFAwIGAQAHCAkKCwEAAgIDAQEBAQEAAAAAAAAA&#xA;AQACAwQFBgcICQoLEAACAQMDAgQCBgcDBAIGAnMBAgMRBAAFIRIxQVEGE2EicYEUMpGhBxWxQiPB&#xA;UtHhMxZi8CRygvElQzRTkqKyY3PCNUQnk6OzNhdUZHTD0uIIJoMJChgZhJRFRqS0VtNVKBry4/PE&#xA;1OT0ZXWFlaW1xdXl9WZ2hpamtsbW5vY3R1dnd4eXp7fH1+f3OEhYaHiImKi4yNjo+Ck5SVlpeYmZ&#xA;qbnJ2en5KjpKWmp6ipqqusra6voRAAICAQIDBQUEBQYECAMDbQEAAhEDBCESMUEFURNhIgZxgZEy&#xA;obHwFMHR4SNCFVJicvEzJDRDghaSUyWiY7LCB3PSNeJEgxdUkwgJChgZJjZFGidkdFU38qOzwygp&#xA;0+PzhJSktMTU5PRldYWVpbXF1eX1RlZmdoaWprbG1ub2R1dnd4eXp7fH1+f3OEhYaHiImKi4yNjo&#xA;+DlJWWl5iZmpucnZ6fkqOkpaanqKmqq6ytrq+v/aAAwDAQACEQMRAD8A9U4q7FXYq7FXYq7FXYq7&#xA;FXYq7FXYq7FXYq7FXYq+CP8AnKXzZPrv5wanbiUtZ6Isen2qg7KY1DzGnSvrOw+gYqxnyh+dP5ne&#xA;U5EOka/dC2T/AI8blzc2xHh6U3NVr4rQ4q+lvyw/5y/8ta28Om+dIF0HUXoq6jGS1g7Hb4uVXg/2&#xA;XJfFhir6AOoWC2YvmuYhZMokF0XX0ihFQ3OvGhHeuKsU1P8AOX8qdMYrd+bNLDjZo47qOZwfdYi5&#xA;H04qkM//ADk5+RsLBX8zoSRX4LS9kH3pAwxVfa/85L/kfcmkfmiJTUL+9t7yIVPvJCm3virJdH/N&#xA;H8t9ZKppnmfTLmV9lhW6hEp2r/dswf8ADFUN59/NzyF5FsvrGvanGs7KWt9PgImupadkiU/8MxC+&#xA;+Kvlf8x/+cu/PGvtJZ+VkHlzTCaCZCJb2Qe8pHGOvggqP5jirxHU9a1nVrn61ql/cX9z19e6leaS&#xA;p/ypCxxV+hH5C+bJvNP5TeX9UuZDLepAbO8dyWdpbRzAXcnqzqgc/PFWf4q7FXYq7FXYq7FXYq7F&#xA;XYq7FXYq7FXYq7FXYq7FXYq7FXYq7FX5pfmhJPJ+Zfmx7gcZ21nUDIvg31qSo3r06YqxjFXYqqvd&#xA;XLwpA8rtBFUxxMxKqT14qdhXFVLFXYq7FXYq7FXYq7FX3D/zhu7t+UUgZiQmqXIUE9B6cRoPpOKv&#xA;c8VdirsVdirsVdirsVdirsVdirsVdirsVdirsVdirsVdirsVdir87f8AnIGxsrL85fNcNlMk8L3p&#xA;nd4yCBLcIs0yGn7SSuyt7jFXnuKuxV2KuxV2KuxV2KuxV2KuxV9w/wDOIGueXrn8rI9IsZ1Or6fc&#xA;zvq1sTRwZ5GMUgH8jRBRXxBxV7nirsVdirsVdirsVdirsVdirsVdirsVdirsVdirsVdirsVdirzD&#xA;/nIb80X/AC/8gTXNi4XXdUY2ek+KOykyT0/4qTcf5RWuKvz9llllleWV2klkYtJIxLMzMakknckn&#xA;FVmKuxV2KuxV2KuxV2KuxV2KuxVln5X/AJg6n5B852HmGxZmjiYR6hbKaCe1cj1YjXbcCq16MAe2&#xA;Kv0f0zUbPU9OtdSsZRNZXsKXFtMvR45VDow+anFUTirsVdirsVdirsVdirsVdirsVdirsVdirsVd&#xA;irsVdirsVfFH/OZfmOW//My00YMfq2i2MY4eE10TLIw+cfpj6MVeBYq7FXYq7FXYq7FXYq7FXYq7&#xA;FXYq7FX3j/zid5il1n8nbKGZi8mjXM+nFj14oVmjH+xjnVR8sVex4q7FXYq7FXYq7FXYq7FXYq7F&#xA;XYq7FXYq7FXYq7FXYq7FXwD/AM5SEn89fMoJqB9RA9h+j7c4q8pxV6x+RH5D6n+ZepSXV3JJYeV7&#xA;Fwl7fIB6ksmx9C35Arz4mrMQQoI2NQCq+0vLH5V/l35Zs0tdG8v2UAVeDTvCss7jr+8nkDyPv4ti&#xA;qdf4e0D/AKtlp/yIj/5pxVSuvKXlW7jEV1o1jPGDyCS20LrUd6MpxVAT/ll+W9wAJ/KmjTBfsiTT&#xA;7VqV8Kx4q3b/AJaflzbgi38q6PCCakR2Fqor47RjFU4g0fSbcloLK3iLbEpEikj6BiqsbO0IoYIy&#xA;D1HFf6Yq83/MP/nHj8tPOlpMX02LSNXYMYtV0+NYZBIf2pY14pMK9eYrTow64q+IPzG/LvzF5B8y&#xA;zaFrcQEij1LW6SvpXEBJCyxk9jTcdQdjirF8VfYf/OEUznyf5jhP2E1CN18avAAf+IDFX0jirsVd&#xA;irsVdirsVdirsVdirsVdirsVdirsVdirsVdirsVfBP8AzldZPb/nfrUrVpeQ2UyVp0FrHDt9MRxV&#xA;5Lb281zcRW8CGSaZ1jijHVmY0UD5k4q/THyF5Q0/yd5Q0vy3Ygejp0CxvIBT1Zj8U0p95JCzfTiq&#xA;K8z6+uh6S94ts99duyQWNhCQJLi5lPGKJS3wryb7THZVqx2GKvDvKH/OUWsP+ZLeSvPfl6PQZ5bo&#xA;WUUkcjMYJ3IESTcqq6SchSVKDcGnE1Cr6GxV2KuxV2KvnTzz/wA5ReZtCu7bWNM8p/W/IVxdS2dr&#xA;rc8jIb14GpI0BUFYlPFvT5qedCR0ICr3Xyn5n0rzT5c0/wAw6S5k0/UoVmhLUDLXZkcAkBkYFWFe&#xA;oxV5X/zln5Ktte/Ky41dY66l5dkW7t5AKt6MjLHcJX+XiRIf9QYq+FcVfZ3/ADhPZmP8u9avCoHr&#xA;6s8YNNyIraE/dWQ/jir6GxV2KuxV2KuxV2KuxV2KuxV2KuxV2Kpbq+tJpzRKYjJ6gJ2NKUp7Hxy7&#xA;Fh43G1Go8OtrtAf4wj/5ZT/wY/pl35Q97jfyiO5E6b5jjvbtbcQGMsCQ3KvQV8BleXBwi7b8GrGS&#xA;VVStf+ZvLenlhf6tZ2ZT7QnuIoqb8d+bDvtmO5aW/wDKzPy5IkK+adJf0tpFS+t3YEduKuTX2xVc&#xA;v5ieSGjEq6zbNGRyDhiVp41pir5O/wCcwLvyxrHmXQtf0PUra/aa0ksrxbdwxQ28nqRswH8wnYV/&#xA;ycVeMeSbm3tfOeg3NwA1vBqNpJMGNAUSdGap37DFS/TrFXhv/OYJ1WH8sNP1DTZJYJtO1q1unuYG&#xA;ZHiAhnRHDLQikrpQ+NMVfGdg+t655ptWE8t1repXsfG4cmSWS5mlAViTuzF2xV+n2KuxV2KoLXLe&#xA;5udF1C3tTS5mtpo4DWlJGjIXf5nFX5k3Ot682lQ6Dc3tydLspnlh0ySR/RimaodhETxVtz27nxOK&#xA;vuX/AJxStL62/JXSDdAqs811NaqeohadgPvYMw+eKsq/OqWCP8pPN7TU4HSbtRUV+N4iqf8ADkYq&#xA;/N/FX2x/zi/5l8laB+U+nWV/rljZ6jdzXN3cW888cTIWlKJyLlRvHGpxV65/ysPyB/1M2lf9J1t/&#xA;zXirR/MX8vgwU+Z9JDHoPr1tU0/2eKprYa1o2oAGwv7e8B3BglSXalf2Ce2KozFXYq7FXYq7FXYq&#xA;7FXYq7FWMecP761/1X/WMzdJ1dZ2j0Y5LEssTxMWCyKVYozI1CKfCykMp9wa5lutCR6fpX5aWutR&#xA;waz6N/NRybPUJpdTmaqEfDBO9xI30LmLqABHzdjopSMt+VdzMLSby7AD+gPJFxMgFOUWn22mjc1I&#xA;437WT9etFzBdoltx53/MQyyLbaNp8SAsB9avHVx1pVYYJlPb9vM0acEft/Y6yWtIPP7P2qJ8zfmh&#xA;L0uNGtASf+Pa5uSBT4f9321d+uP5Vj+fKV/mH+XHnf8AMj8vJ9Mv9Z017kf6RZJDp0kANzCx4fvH&#xA;u5+AdaoTTYNXMbLDhlTn4MnHG3wpfWN5YXtxY3sLW95ayPDcwSDi6SRsVdGHYgimVtz9GPyb8/W/&#xA;nr8vdK11ZA196YttVQUql5CAstQK057SKP5WGKsn13Q9J17SLvR9XtkvNNvYzFc20g+FlO/bcEHc&#xA;Ebg7jfFXm3kP/nGb8tPJfmRPMOni8vb+As1mL6WOSO3ZgRyjVI4qsAaAuWp1674q9XxVg/5xfmBq&#xA;/kTya2u6Xoz63ci4igaBCwWJJAxM0nBWbiCoX/WYYqyXyvq11rHlvS9Wu7J9Our+1huZ7CU1eF5U&#xA;DtG1QpqpNNwD7DFUzxV5B5p/5xZ/KvzJ5ol8xXUd5azXMnrXllZzJFbTSE1dnUxs6mT9r03Xx674&#xA;q9Y0+wstOsbewsYVt7K0jWG2gjFESOMBVVR4ADFXiH/OYPnKDSPy0Xy+jj695iuEjEYJDC2tXWeV&#xA;9v8ALWNPflir4+8keUNV84eatO8uaWtbrUJRH6lKrFGN5JX6fDGgLH5Yq/QXSPK/nzRtHs9J03X9&#xA;LW0sIYra3WfSJn4wwxiNVHpahD2UYqjOH5lRcv3ujXu7cR6d1Z1FPgr8d5TfrirT6159tt7jyxb3&#xA;S/8Aau1JZXPX9m7gsVr0/a+nFUj1DXfJM1R5o8l3lkF2Z77R1voh1+1NYi+iUb9S9MVRPl+0/KnW&#xA;JSPLV/Csq8hJaaTqE9oyV3IktrWaErTwZNsVZ1irsVdirsVdirsVdirsVYx5w/vrX/Vf9YzN0nV1&#xA;naPRjrKrKVYBlYUZTuCD2OZbrUb5O0+wsdShhsraK1ho59OFFjWvE9lAGY+pFQc7QknJv3M8zXu3&#xA;eeXP+9Mv+u36828eQecn9RUskxZp5a/45EX+s/8AxI5rdR9butF/dh4p/wA5H/8AOP1j5sjbzToH&#xA;C18zjilzE3wxXqqtF5n9mVVWit0PRvEVwgZGg3ZcogLPJ86flx+ZHnf8nPNkyy2ciwylU1fQ7qsQ&#xA;mRa8XU0PFxU8JACPmMiQRsWcZCQsPsvyB+en5beeIYl0vVY7bUpKBtJvSsF0GpUqqseMvzjLDAyZ&#xA;/irsVYV5i1j8xND8ym5sNGbzN5YvIUUWtpJbwXllcpUM379okmilBX9uqn2xVMPJk3nm7bUdQ80W&#xA;8OmxXMiDStEidJ5LaGNSGae4QcXklY8iqkqoAAJ3xVkuKuxVgf5kfnZ5A8g2sp1bUEn1RR+60a1Z&#xA;Zbt2PTkgP7pf8qSg8KnbFXxP5o8wefvzo/MA3EFjJe6jcAQ6fplsC0dtbKSVXkaAKvIs8jUFSTt0&#xA;xV9c/kH+RFl+W2lyXt+8d55p1BAt5dIPggj2b6vCTuRyFWbblttsMVet4q7FXYq7FUBqXl/QdUaN&#xA;tT021vmiIaJrmCOYqymoK81ahBxVH4q7FXYq7FXYq7FXYq7FWMecP761/wBV/wBYzN0nV1naPRj2&#xA;ZjrU08tf8diH5P8A8ROY2q+lzdB9fwZpmvdw88uf96Zf9dv15t48g85P6ixzzxL5ui8tXUnlKOCX&#xA;W0AaCK4+yyg/GFqVXnT7PI0wT4q9PNli4eL1cnlX5e/85JfmPpN/Novmm3trq9imggttEmgks764&#xA;kuZxGyxTKPq8Zj5hqTKAw6MM1kySd+bvcUYiNR5Pon/FmkeZ/LRvdOdg0F21rfWkoCz211DyWWCd&#xA;Kni6H6D1BIIOW6b6nH13938WI+ZPKHlnzLa/Vdd06G+jAIjaRf3iV6+nItHT/YkZnSgJc3UwySgd&#xA;i8l1r/nFDQr24H6A1iewaVwFgukFxGCxoAGUxOB8+RzGnphVgudi10iQCFOb8l/+cmfI1pJcaJ5r&#xA;WTTLKN5OEOpyRQRxqKszRXgigWgFa9B45hO0YDD/AM5RfnnbScW8xrMEJBV7SxdSf9ZYQT9DYqiP&#xA;+hsPzt/6u8H/AEh23/NGKu/6Gw/O3/q7wf8ASHbf80Yqut/+cm/z41W9t7G18wQW81w4iQtb6fDG&#xA;WfYc5biPgg9ywxV6NL+UH/OVvms08webRp9tIKSw/XnjRl8PRsU9JuvfFU78q/8AOFPla1kSfzPr&#xA;lzqrg8mtrVFtYj/ksxMsjD/VKnFXu/lXyX5U8p6f+j/LmlwaZa7F1hX43I6GSRqvIfdmJxVOsVdi&#xA;rsVdirsVdirsVdirsVdiqjeyvDZzzJTnHG7rXpVVJGSgLIDDJKok+TFv8V6p4R/8Cf65nflYup/P&#xA;5PJ3+K9U8I/+BP8AXH8rFfz+TyZVaytLawyt9qRFY08SAcwJCi7eJsAsd84f31r/AKr/AKxmZpOr&#xA;ru0ejHszHWpp5a/47EPyf/iJzG1X0uboPr+DNM17uHnlz/vTL/rt+vNvHkHnJ/UVMAkgAVJ2AGFi&#xA;lP5ofkxpv5heQmi+rrB5oslkfSL0gI/MEn0JGNKxydN/sn4vnrdQbm7vRgjGLfPf5JectS0vU/8A&#xA;D9powg1CyS9uPNcs14YpbyC2YyV+rT0U3VryenFqsnIEbchHFPhlbPUYuOFPo/S9U07VbCDUNOuE&#xA;urK5UPBPGaqyn/Pcds2gIIsOilEg0Uxsf97bf/jIn/EhkZ/SWWL6h73j/wDzmd+Ys9vb6b5G0+44&#xA;C6X69rKIfiMYalvE9OzMrOR7Kc1L0T5MxV2KuxV2Kvtv/nEX8x73zL5JuvL+pyma+8tNFFBKx+Jr&#xA;KZW9BST1MZjZP9Xjir3nFXYq7FXYq7FXYq7FXYq7FXYq7FXYqhtT/wCObd/8YZP+IHJ4/qHva830&#xA;H3FgGbZ552KvQdP/AN4Lb/jEn/ERmonzL0WP6R7mP+cP761/1X/WMy9J1df2j0Y9mY61NPLX/HYh&#xA;+T/8ROY2q+lzdB9fwZpmvdw88uAWupFUVJdgAOpNc28eTzk/qPvW63rdp5UtQzBZ9dnWtvbndYVP&#xA;7clO/gMODAc57sY+1Gp1MdJHvynkO7zKY+Q/zAi1tRYagVi1VR8JHwrMB3UdmHcfSParX9nnF6o/&#xA;R9zk9l9rDP6J7ZPv/a8G/wCcqfyKu2vpfP3lmAyi5I/TmnwqTJ6lP96Y1UfEGA/eAb1+LerU1oiT&#xA;ydzKQHN5N5Q/N0WWuaMb0T6DotlZCz1D/DixxyXTxIwhuZre59W2klrxEjcQWH0DJRyGPIscmKM+&#xA;YtGT/np5ivPKd+LjzHqsHmZbqIaWtrDZwWptafvGmkjjScS1H7DU6UHWkjnmerXHS4wbAee+bfMA&#xA;8w6/cax9W+qNcpCJIfVluKyRQpE8hlmZ5WMjoXPJianqcqchOLHyTHJ+VOqedZmblBq1tpVkoNEJ&#xA;aGSa4LDuQDFx+nFUd+Qsccn5xeU0kUOpv0JVgCKhWI2PvirFfNKInmfV0RQqLe3AVQKAASsAABiq&#xA;eecfI66J5U8neYoXZoPM1nPI6NvwuLS4MUgX/JKNG3zJxV67/wA4SSyDzzr8QP7t9LDsu25W4jAP&#xA;/DHFX2PirsVdirsVdirsVdirsVdiqT6j5jjsrt7YwFylKtyA6gHwPjmRj0/ELtw8+rGOVUhv8YR/&#xA;8sp/4Mf0yz8oe9p/lEdyY6Rq6aispWMxmIioJrXlX2HhlGXFwOVp9R4l7VSvqf8Axzbv/jDJ/wAQ&#xA;ORx/UPe2ZvoPuLAM2zzzYBJoNyegwK9BskZLOBGFGWNAwPYhRmplzL0cB6Qx7zh/fWv+q/6xmXpO&#xA;rru0ejHszHWpp5a/47EPyf8A4icxtV9Lm6D6/gzTNe7h5/5k1yz8qrIwKXOuTljbQ9VhViaSP/AZ&#xA;t9Ngln8oDn5vPazUx0t/xZTyHd5livlDyfqPmrUH1TVJH+oly087H45n7oh8PE9ugzYavWR08eCH&#xA;1fc6rs/s+ermcmQnh6nvVPPHkS58vzjVNKLnTgwYMCfUt3rtVuvGvRvv946HXDMOCf1fey7T7Llp&#xA;z4mO+D7Y/jvZF5b83jzPpv6JvXWPWYqNExoFuAoPTwenUfT8sPU6PwJccfo+52Oi7Q/NQ8OW2Qf7&#xA;L9rCfNP5M/l7r11LNqeipFfkn1Z7ctbSFj1ZxGVV292Byk4oS3bo6jJDa0gsP+cZfyvN/F6kV7LG&#xA;8iAxNcELTkKgFVVt/nlctPEAluhrZmQDwv8A5yC8oeX/ACj+aGo6F5ftjaaZbQ2rRQmSSUhpIEdy&#xA;XlZ23Yk9cwHbsiVEX/nEhiqgF/NlWIHU/VQKn6BirFvyB/8AJyeU/wDmOX/iLYqxTzZ/ylOs/wDM&#xA;dc/8nmxV6r+aQH/Qv35Tmm4/SYB70M4xVkH/ADhL/wAp/rv/AGyj/wBRMWKvsrFXYq7FXYq7FXYq&#xA;7FXYq7FWFeZP+OxP8k/4gM2Om+h02u/vPglmZDhsl8nfZu/nH/xtmFq+js+zuUvgnWp/8c27/wCM&#xA;Mn/EDmNj+oe9zs30H3FgIBJoNyegzavPKmsaxaeVbRZplWbW5lraWh3EQP8AuyT+A/zDhwnOaG0B&#xA;zPf5BlqNRHSxs75TyHd5lB+SvzQuJbv6l5hmVhM37i94qgRjtwcIFXif5u3fbpbrezABxYxy6NPZ&#xA;vbcjLhzHnyP6/wBbKPOH97antxf9YzX6Tq7btH+Fj2ZjrU08tf8AHXh+T/8AETmNqvpc3QfX8EV5&#xA;488W3l+29CDjNqsy/uouoQH9t/bwHfBodCcxs7QDLtPtOOnjQ3yH7PMvPvJ/lK/816lLqepyObIP&#xA;yuJ2rzmf+RT+s9u2bjWauOnjww+rp5PPdndnz1czPIfTe57/ACez21tBbQR29vGsUEShY41FFVR0&#xA;AGc1KRkbPN7WEBEAAUAulijljaKVQ8bgq6MKqVOxBBwAkGwmUQRR5PHPPXkW50C5/Sulc/0dzDAq&#xA;Tzt3rtv141+y30H36TQ64ZRwT+r73jO1Oy5aeXiY/o/3Ke+W/MFv5ptFtbpli8wQLsxoq3KL3/1g&#xA;Ov39OmJqdOcBsf3Z+xz9Hq46qPDLbMP9l+38e4TaxvHqEMcilXWVAynqDyGVyNxPubMYImAe98lf&#xA;85Yf+Tt1j/jBZ/8AUNHmpehRX/ro/wD4Nf8A2LYqxX8gf/JyeU/+Y5f+ItirFPNn/KU6z/zHXP8A&#xA;yebFXqv5pf8ArPv5Uf8Abz/5PjFWQf8AOEv/ACn+u/8AbKP/AFExYq+ysVdirsVdirsVdirsVdir&#xA;sVYV5k/47E3yT/iAzY6b6HTa/wDvPglmZDhsl8nfZu/nH/xtmFq+js+zuUvgnepAnTroAVJhkAA/&#xA;1TmNj+oe9zsouB9xYLrOr2flS0WWYLPrcy1tbQ7rED/uySn+f682uDDLOaG0BzPe6HUaiOkjZ3yn&#xA;kO7zLFfKnlXU/N+qS6lqUrmz51urk/akb/fafR9CjNhqtVDTw4Y/V0DqdBocmsyGcz6b3Pf5D8bM&#xA;k87/AJZWzWv17QIPTmhX97ZLUiRR+0la/GPDv8+uDou0zfDkOx6uz7T7FiY8eEUR07/d5/ek/k/z&#xA;hDLAmg69JxhX4bG+brC3QI5P7H6vl0ydZoyD4mPn1He4XZ/aAI8HMdv4Zd3kfL8e6QXdjc2tz9Xk&#xA;X4/2CNwwPQr88woTEhYdjkxShKit1vXbXylafsz69cJ+5g6rCp/ben+ZyWDTnUHuxj7UanVR0ke/&#xA;LLp3e9inlLylqXmzUpNR1GR/qXPldXTfalb+RP8AOgGbDV6uOnjwx+roO51Og0E9XMzmTw3ue/yH&#xA;42e0WlpbWdtHa2saw28KhY41FAAM5mczI2dyXtceOMIiMRQCrkWbsVWyxRyxtFKoeNwVdGFVKnYg&#xA;g4QSDYRKIIo8njvnjyPdeXroavpBcaeHDgoTzt3rtv141+y30H36TQ64ZhwT+r73je0+zJaeXiY/&#xA;o/3LIvKfmex8y+hHfuttrdqVZ32VbiNDUsP8oAbj+HTC1ellgsx3gfsdjoNbDU0J7ZY/7Ifr/Hu8&#xA;Z/8AOQnmrTfM/wCbmvanpcqz6erxWtvcJusgtoUid1IJDKXRuJHUUzTkPQg2y69027s/+cQbOW4Q&#xA;ol/5k+s29duUfpvFy/4KJsUsL/IH/wAnJ5T/AOY5f+ItirFPNn/KU6z/AMx1z/yebFXrv5nWF1J/&#xA;zjd+V9+iE2tvJfQzSDorzyu0YPzELYqof84k+btO8v8A5qC21CZYINbs5LCGVyFUXBkjliBY/wA/&#xA;plB4swxV904q7FXYq7FXYq7FXYq7FXYqwvzJ/wAdib5J/wAQGbHTfQ6bXf3nwSvMhw2S+Tvs3fzj&#xA;/wCNswtX0dn2dyl8FPzt52tPLtp6cfGbU5l/cQdlHTm9P2f15LRaI5jZ2iGPaXaUdPGhvM8h+kvN&#xA;/K/lfVfOGqy39/K/1Tnyu7tvtO3++4+1afQo+gZu9VqoaeHDHn0DzWh0OTWZDOZ9PU/oH42e0WNj&#xA;aWNpFaWkSw28K8Y416Af59TnMzmZmzuS9rixRxxEYigFfINjzz8wvy9F6JNX0iOl4KtdWqj+98XQ&#xA;fz+I/a+fXcdn9ocPon9PQ937Hne1+yOO8mMerqO/9v3+9jGh/mTqOmaS9jcQLd3EC8dOuJd2hrsV&#xA;au5AHT7unTPz9mxnPiBoHn5uq0vbM8WPgI4iPpJ6LPKXlLUvNmpSajqMj/UufK6um+1K38if50Aw&#xA;6vVx08eGP1dB3I0Ggnq5mcyeG9z3+Q/Gz2i0tLazto7W1jWG3hULHGooABnMzmZGzuS9rjxxhERi&#xA;KAVcizdirsVdiq2WKOWNopVDxuCrowqpU7EEHCCQbCJRBFHk+cfz4/JXzheCA+Ubv0tHmZheWg9T&#xA;mOdKKTGHZkArQU+fbNt+ZnqIiHEIkc+l/judB+Sx6SZyCBnE8q3Mfx3/AIJB5A/5wwkke3v/ADnq&#xA;1LeodtJslId16hZJ3pwr3CpX3BzV5IiJoG3eYpmUQSOG+iZ/85feYvKuleRtH8gaUYYryK5hnGnQ&#xA;UpbWlvC6JyVfscjIvEHqKnINjyn/AJxV8nX+vfmxp+oxxt+jtBD3t7PvxDFGSBK/zNIwNPAHwxVi&#xA;H5weUdU8q/mNrmmX8ToGu5bmzlYbTW08jPFIp6Gqmhp0YEdRir6Y/wCcbdT8n/mB+TUn5ea3Gl1N&#xA;pfqx3llIaO0E07TQzxEbjgz8Qy7qQPEYqxXzP/zhJqi3byeVfMUD2pNYoNTR45E8AZoFkD/P01+W&#xA;Kve/yd8tefvLXk9NI866rBrGo28ri1uoXllItiBwSSWZY3cq3KlV2FB2xVnGKuxV2KuxV2KuxV2K&#xA;uxVhfmT/AI7E3yT/AIgM2Om+h02u/vPglgBYhVFSdgB1Jy9w0XqvmKLyhpjqxWXWLwBobXtGBUB5&#xA;Kdt+nf8AHI4dMdRL+gOv6m7PrBo8ffklyHd72GeV/K+q+cNVlv7+V/qnPld3bfadv99x9q0+hR9A&#xA;zZ6rVQ08OGPPoHS6HQ5NZkM5n09T+gfjZ7RY2NpY2kVpaRLDbwrxjjXoB/n1OczOZmbO5L2uLFHH&#xA;ERiKAV8g2OxV2KsQ1/8ALPRdX1VdQ5taljW7iiApKa9f8lj3ObHT9pTxw4efd5On1fYuLNk474e+&#xA;uv6mVWlpbWdtHa2saw28KhY41FAAMwJzMjZ3JdrjxxhERiKAVcizdirsVdirsVdirsVdirxbzd/z&#xA;in5D81ecb7zNqWo6kkuoyie4tIJIVj5BQpCs0TsFPHx+WKvTfJ/knyv5O0dNH8uWEdhYqebKlWeR&#xA;yKF5JGJd2NOrH26YqhPPn5a+TPPenLY+ZdPS7WKptrlSY54SepilWjL03HQ9wcVYd+Wv/ON/kv8A&#xA;L7zS/mLSb7ULm59F4IYbuSJkRZacj+7jjLHagrir1jFXYq7FXYq7FXYq7FXYq7FXYqwzzGpOsyhR&#xA;ViEAA6k8Rmw0x9DqNeP3g9yB1jWLPynZiWULPrk61tbU7iIHbm9P8z0Hc5fhwy1EqG0BzPe4mo1E&#xA;dJGzvlPId3mWJeWPKur+b9Uk1C/kf6mX5XV432nP8kfav4KPuzY6rVQ08OGP1dA6jRaHJrMhnMnh&#xA;6n9A/Gz2exsbSxtIrS0iWG3hXjHGvQD/AD6nOanMzNncl7XFijjiIxFAK+QbHYq7FXYq7FXYq7FX&#xA;Yq7FXYq7FXYq7FXYq7FXYq7FXYq7FXYq7FXYq7FXYq7FXYq7FXYqwvzn5h07y7PJdjjcavOoFpbH&#xA;7MYA4+o/t4eP4jZaLTSzCuUOp/Q6btPWw054ueSth3eZYP5U8qap5u1STUtSkf6lz5XNy32pG/33&#xA;H/nRRm11Wqhp4cMfq6B0Og0GTWZDOZ9PU9/kPxs9ntLS2s7aO1tY1ht4VCxxqKAAZzU5mRs7kvaY&#xA;8cYREYigFXIs3Yq7FXYq7FXYq7FXYq7FXYq7FXYq7FXYq7FXYq7FXYq7FXYq7FXYq7FXYq7FXYq7&#xA;FXYqxjzt52tPLtp6cfGbU5l/cQdlHTm9P2f15naLRHMbO0Q6vtLtKOnjQ3meQ/SXnXlTypqnm7VJ&#xA;NS1KR/qXPlc3Lfakb/fcf+dFGbnVaqGnhwx+roHnNBoMmsyGcz6ep7/IfjZ7PaWltZ20draxrDbw&#xA;qFjjUUAAzmpzMjZ3Je0x44wiIxFAKuRZuxV2KuxV2KuxV2KuxV2KuxV2KuxV2KuxV2KuxV2KuxV2&#xA;KuxV2KuxV2KuxV2KuxV2KuxV2KvK5fyy17UfNdxLqc3LTnkMrXocF3QnZFUkspptuKDtXN+O08cM&#xA;IEB6u55SXYubJqCch9F3ff5PTrOztrK1itbWMRW8KhI416ADNFOZkSTzL1GPHGERGIoBWyLN2Kux&#xA;V2KuxV2KuxV2KuxV2KuxV2KuxV2KuxV2KuxV2KuxV2KuxV2KuxV2KuxV2KuxV2KuxV2Kv//Z</xmpGImg:image>
               </rdf:li>
            </rdf:Alt>
         </xmp:Thumbnails>
         <dc:format>image/svg+xml</dc:format>
         <photoshop:ColorMode>3</photoshop:ColorMode>
         <photoshop:ICCProfile>Display</photoshop:ICCProfile>
         <xmpMM:InstanceID>xmp.iid:22734eb5-29db-4661-9d85-e656b855c4f9</xmpMM:InstanceID>
         <xmpMM:DocumentID>xmp.did:22734eb5-29db-4661-9d85-e656b855c4f9</xmpMM:DocumentID>
         <xmpMM:OriginalDocumentID>xmp.did:9edfb14f-f2c5-4a5f-804f-bff8a91eac1f</xmpMM:OriginalDocumentID>
         <xmpMM:History>
            <rdf:Seq>
               <rdf:li rdf:parseType="Resource">
                  <stEvt:action>created</stEvt:action>
                  <stEvt:instanceID>xmp.iid:9edfb14f-f2c5-4a5f-804f-bff8a91eac1f</stEvt:instanceID>
                  <stEvt:when>2019-03-12T22:58:35-05:00</stEvt:when>
                  <stEvt:softwareAgent>Adobe Photoshop CC 2017 (Macintosh)</stEvt:softwareAgent>
               </rdf:li>
               <rdf:li rdf:parseType="Resource">
                  <stEvt:action>saved</stEvt:action>
                  <stEvt:instanceID>xmp.iid:e64b855c-6206-4b16-a202-6d5309dcadb4</stEvt:instanceID>
                  <stEvt:when>2019-03-13T00:24:02-05:00</stEvt:when>
                  <stEvt:softwareAgent>Adobe Photoshop CC 2017 (Macintosh)</stEvt:softwareAgent>
                  <stEvt:changed>/</stEvt:changed>
               </rdf:li>
               <rdf:li rdf:parseType="Resource">
                  <stEvt:action>saved</stEvt:action>
                  <stEvt:instanceID>xmp.iid:22734eb5-29db-4661-9d85-e656b855c4f9</stEvt:instanceID>
                  <stEvt:when>2019-03-13T00:25:48-05:00</stEvt:when>
                  <stEvt:softwareAgent>Adobe Illustrator CC 2017 (Macintosh)</stEvt:softwareAgent>
                  <stEvt:changed>/</stEvt:changed>
               </rdf:li>
            </rdf:Seq>
         </xmpMM:History>
         <xmpMM:DerivedFrom rdf:parseType="Resource">
            <stRef:instanceID>xmp.iid:04e821f3-5361-48c9-a1a1-d3c17a7d4d6f</stRef:instanceID>
            <stRef:documentID>adobe:docid:photoshop:9ec47501-85de-117c-83ad-a32d51dbdc10</stRef:documentID>
            <stRef:originalDocumentID>xmp.did:9edfb14f-f2c5-4a5f-804f-bff8a91eac1f</stRef:originalDocumentID>
         </xmpMM:DerivedFrom>
         <tiff:Orientation>1</tiff:Orientation>
         <tiff:XResolution>720000/10000</tiff:XResolution>
         <tiff:YResolution>720000/10000</tiff:YResolution>
         <tiff:ResolutionUnit>2</tiff:ResolutionUnit>
         <exif:ColorSpace>65535</exif:ColorSpace>
         <exif:PixelXDimension>1286</exif:PixelXDimension>
         <exif:PixelYDimension>880</exif:PixelYDimension>
         <xmpTPg:MaxPageSize rdf:parseType="Resource">
            <stDim:w>1286.000000</stDim:w>
            <stDim:h>880.000000</stDim:h>
            <stDim:unit>Points</stDim:unit>
         </xmpTPg:MaxPageSize>
         <xmpTPg:NPages>1</xmpTPg:NPages>
         <xmpTPg:HasVisibleTransparency>False</xmpTPg:HasVisibleTransparency>
         <xmpTPg:HasVisibleOverprint>False</xmpTPg:HasVisibleOverprint>
         <xmpTPg:PlateNames>
            <rdf:Seq>
               <rdf:li>Cyan</rdf:li>
               <rdf:li>Magenta</rdf:li>
               <rdf:li>Yellow</rdf:li>
               <rdf:li>Black</rdf:li>
            </rdf:Seq>
         </xmpTPg:PlateNames>
         <xmpTPg:SwatchGroups>
            <rdf:Seq>
               <rdf:li rdf:parseType="Resource">
                  <xmpG:groupName>Default Swatch Group</xmpG:groupName>
                  <xmpG:groupType>0</xmpG:groupType>
               </rdf:li>
            </rdf:Seq>
         </xmpTPg:SwatchGroups>
      </rdf:Description>
   </rdf:RDF>
</x:xmpmeta>
                                                                                                    
                                                                                                    
                                                                                                    
                                                                                                    
                                                                                                    
                                                                                                    
                                                                                                    
                                                                                                    
                                                                                                    
                                                                                                    
                                                                                                    
                                                                                                    
                                                                                                    
                                                                                                    
                                                                                                    
                                                                                                    
                                                                                                    
                                                                                                    
                                                                                                    
                                                                                                    
                           
<?xpacket end="w"?>
	</metadata>
<g id="Layer_2_xA0_Image_1_">
	<g>
		<path class="st0" d="M797,617c-4.5,2.9-8.1,7-11.5,11c-3.4,3.9-5.2,3-8.3-0.2c-20.2-20.5-40.7-40.8-61-61.2
			c-20.4-20.4-40.8-40.7-61.1-61.2c-2.5-2.5-3.9-2.4-6.3,0.1c-47.1,47.3-94.4,94.5-141.5,141.8c-2.7,2.7-4.1,2.8-7,0
			c-25.6-25.8-51.4-51.3-76.9-77.1c-3-3-4.4-2.8-7.3,0.1c-48.9,49.1-97.9,98-146.9,147c-24.7,24.7-49.5,49.4-74.1,74.3
			c-2.6,2.6-4.2,3.4-6.9,0.2c-2.6-3.2-5.6-6.2-8.8-8.8c-3.1-2.6-2.7-4.2,0-6.9c27.5-27.3,55-54.8,82.4-82.2
			c51.4-51.3,102.7-102.6,154-154c3.2-3.2,4.9-3.2,8.1-0.1c24.9,25.2,50.1,50.2,75.1,75.4c4.7,4.8,4.7,4.9,9.5,0.1
			c46.1-46,92.1-92.1,138.2-138.1c5.5-5.5,5.5-5.4,10.9,0c18,18,36.1,36,54.1,54.1c17.6,17.7,34.9,35.7,52.7,53.2
			c4.8,4.7,9.6,9.5,14.5,14.1c2,1.9,3.2,2,5.3,0c4.3-4.1,8-8.9,12.9-12.4C797,596.3,797,606.7,797,617z"/>
		<path class="st1" d="M781,250c0,0.3,0,0.6,0,1c-1.1,1.2-2.6,1.5-4.1,1.5c-6,0.2-12,0.2-17.9,0c-1.5-0.1-3-0.3-4-1.6
			c0-0.3,0-0.6,0-0.9C763.7,250,772.3,250,781,250z"/>
		<path class="st2" d="M755,250.9c8.7,0,17.4,0,26,0.1c1.4,1.6,0.8,3.5,0.8,5.3c0,106.1,0,212.3,0,318.4c0,3-0.3,5.9-1.3,8.7
			c-1.6-0.3-2.3-1.5-3.2-2.4c-22.3-22.2-44.6-44.5-66.8-66.8c-1.1-1.1-2.7-2-2.7-4c-0.8-1.6-0.4-3.3-0.4-4.9c0-82.6,0-165.3,0-247.9
			c0-5.8,0-5.7,6-5.8c11.5-0.2,23,0.5,34.4-0.4C750.3,251,752.6,251,755,250.9z"/>
		<path class="st2" d="M537,569.8c-8.6,8.3-17.3,16.4-25.2,25.5c-2.2,2.5-4.9,4.4-7.3,6.7c-2,1.8-3,0.1-4.1-1
			c-10.3-11.1-21.1-21.6-32-32c-1.5-1.4-2.6-3-3.5-4.8c-0.8-1.6-0.4-3.3-0.4-4.9c0-80.8,0-161.5,0-242.3c0-1.6-0.4-3.3,0.5-4.9
			c23.7,0,47.3,0,71,0c2.5,1.5,1.4,3.9,1.4,5.9c0.1,80,0.1,160,0,239.9C537.4,561.9,538.1,565.9,537,569.8z"/>
		<path class="st2" d="M221,515.9c3-0.3,6.1-0.7,9.1-0.7c19.6-0.1,39.1,0,58.7-0.1c3.6,0,5.9,0.7,5.1,5c-0.6,1.3-0.4,2.6-0.4,3.9
			c0,37.7,0,75.4,0,113.1c0,1.3-0.3,2.7,0.4,3.9c1.4,4.6-2.6,6.5-4.9,8.9c-19.2,19-38.5,37.9-57.2,57.4c-3.2,3.3-6.7,6.3-9.5,9.8
			c-3.1-0.5-1.6-2.9-1.6-4.3c-0.1-12.9-0.1-25.9-0.1-38.8c0-35.2,0-70.3,0-105.5c0-2.3,0-4.5,0-6.8c0-13.6,0-27.3,0-40.9
			C220.5,519.2,220.1,517.5,221,515.9z"/>
		<path class="st2" d="M585.8,429.4c0-29,0.1-58-0.1-87c0-2.9,1-3.4,3.4-3.4c22.3,0,44.7,0.1,67-0.1c4.4,0,3.3,3,3.3,5
			c0,33.1-0.2,66.3-0.2,99.4c0,4.4,0.4,8.9,0.4,13.3c0,1.2-0.3,3-1.2,3.6c-1.4,1-2.4-0.7-3.1-1.7c-2.4-3.1-4.1-2.6-6.7,0.1
			c-10.8,11.1-21.8,21.9-32.7,32.9c-8.3,8.3-16.6,16.6-24.9,24.8c-1.3,1.3-2.6,3.4-4.4,2.5c-1.5-0.7-0.6-3-0.6-4.6
			C585.9,486.1,585.9,457.8,585.8,429.4C585.9,429.4,585.9,429.4,585.8,429.4z"/>
		<path class="st2" d="M415,524.1c-12,12.1-23.9,24.3-36,36.2c-11.9,11.7-24,23.2-36,34.8c-1.1-3.1-0.2-6.3-0.5-9.5
			c0-46.4,0-92.7,0-139.1c0-1.8-0.5-3.7,0.5-5.4c24,0,48,0,72,0c0.7,1,0.5,2.2,0.5,3.4c0,25.4,0,50.8,0,76.2
			C415.5,521.9,415.7,523,415,524.1z"/>
		<path class="st3" d="M747.9,251.1c-2.4,1.8-5.2,0.8-7.7,0.8c-9,0.1-18,0.3-27,0c-4.2-0.1-5.3,1.2-5.3,5.3
			c0.1,49.5,0.1,98.9,0.1,148.4c0,34.8,0,69.6,0,104.4c-1.4-1.6-0.8-3.5-0.8-5.3c0-82.8,0-165.5-0.2-248.3c0-4.3,1-5.8,5.5-5.6
			C724.3,251.3,736.1,251.1,747.9,251.1z"/>
		<path class="st4" d="M537,569.8c0-83.8,0-167.6,0-251.4c0-2.1,0.4-4.4-1-6.3c3.6,0.6,1.9,3.5,1.9,5.2c0.1,36.6,0.1,73.3,0.1,109.9
			c0,45.6,0,91.3,0,136.9C538,566.1,538.8,568.2,537,569.8z"/>
		<path class="st5" d="M465,312.1c0,84,0,168,0,252.1c-1.6-1.5-0.9-3.5-0.9-5.2c0-80.6,0-161.2,0-241.8
			C464,315.5,463.2,313.5,465,312.1z"/>
		<path class="st6" d="M343,441.1c0,48.3,0,96.6,0,144.9c-0.3,0.5-0.6,0.4-0.9,0c0-47.3-0.1-94.5-0.1-141.8
			C342,443.1,341.7,441.8,343,441.1z"/>
		<path class="st7" d="M293.9,640.9c-1.4-1.4-0.9-3.1-0.9-4.7c0-37.1,0-74.3,0-111.4c0-1.6-0.5-3.4,0.9-4.7
			C293.9,560.4,293.9,600.6,293.9,640.9z"/>
		<path class="st8" d="M220.9,567.9c0,35.4,0,70.7,0,106.1c-0.3,0.4-0.6,0.4-0.8-0.1c0-35.3,0-70.7,0-106
			C220.4,567.6,220.6,567.5,220.9,567.9z"/>
		<path class="st9" d="M415,524.1c0-27.7,0-55.3,0-83c1.5,0.9,1,2.4,1,3.6c0,25.2,0,50.5,0,75.7C416,521.7,416.3,523.1,415,524.1z"
			/>
		<path class="st10" d="M221,515.9c0,15.4,0,30.8-0.1,46.2c-0.3,0.4-0.6,0.4-0.8,0c0-14.1-0.1-28.3-0.1-42.4
			C220,518.3,219.7,516.9,221,515.9z"/>
		<path class="st11" d="M220.1,674c0.3,0,0.6,0,0.8,0.1c0,12.7,0,25.3,0,38c0,1.7-0.7,3.7,1.2,5c-3.2,1.3-2.1-1.4-2.1-2.5
			C220,701.1,220.1,687.5,220.1,674z"/>
		<path class="st12" d="M342.1,586c0.3,0,0.6,0,0.9,0c0,3,0,6.1,0.1,9.1c0,0.2,0,0.4-0.1,0.5c-0.2,0.1-0.4,0.2-0.7,0.3
			C342.2,592.6,342.2,589.3,342.1,586z"/>
		<path class="st13" d="M220.1,562c0.3,0,0.5,0,0.8,0c0,2,0,3.9,0,5.9c0,0-0.4,0-0.4,0s-0.4,0-0.4,0C220.1,566,220.1,564,220.1,562z
			"/>
		<path class="st14" d="M421.4,541.3c1.8,0,2.4,0.9,3.1,2.3C422.9,543.8,422.2,542.8,421.4,541.3z"/>
		<path class="st15" d="M432.5,551.8c-1.8-0.2-2.3-1.2-3.2-2.4C431.2,549.3,431.9,550.2,432.5,551.8z"/>
		<path class="st15" d="M449.2,567.7c-2.5,0-3.1-0.9-3.8-2.2C447.2,565.1,447.7,566.4,449.2,567.7z"/>
		<path class="st16" d="M453.5,573c1.7,0.6,2.6,1.2,2.8,2.5C454.7,575.7,454.1,574.8,453.5,573z"/>
		<path class="st17" d="M464.6,583.7c-1.8,0-2.4-0.9-3.1-2.3C463.1,581.2,463.8,582.1,464.6,583.7z"/>
		<path class="st18" d="M440.4,558.2c-0.9,0.8-1.2,1.1-1.3,1.1c-0.7-0.3-1.4-0.8-1.4-1.7c0-0.1,0.6-0.3,0.8-0.2
			C439.2,557.6,439.8,557.9,440.4,558.2z"/>
		<path class="st19" d="M478.6,597.2c0.3,0.4,0.9,0.9,1.1,1.4c0.2,0.6-0.3,0.9-0.8,0.5c-0.5-0.4-0.8-1-1.2-1.5
			C477.9,597.6,478.1,597.4,478.6,597.2z"/>
	</g>
</g>
<g id="Layer_1_xA0_Image_1_">
	<g>
		<path d="M1259,335c-3.5-0.1-7.1,0.3-10.5-0.3c-27.9-4.9-55.9-8.2-84.2-8.7c-21.3-0.4-42.6-0.1-63.9-0.3c-4.3,0-6.4,1.4-7.2,5.5
			c-0.5,2.6-1.6,5-2.7,8.3c56.7,2.1,112.3,8.4,166.5,23.6c0,0.6-0.1,1.1-0.1,1.7c-1.3-0.1-2.6-0.2-3.8-0.4
			c-27.5-5.4-54.8-12-82.5-15.9c-25.5-3.6-51.3-4.4-77-6.5c-2.3-0.2-4.3-0.3-5.7,2.6c-14.6,31.7-40.6,50.1-72.6,61.3
			c-22.2,7.8-45.2,11.6-69.2,14.3c3.9,3.7,7.7,6.9,10.9,10.5c11.2,12.7,16.6,27.9,16.9,44.7c0.4,20.5,0.1,41,0.3,61.5
			c0.1,12.2,0,24.3,0.6,36.4c0.8,13.6,7.1,24,19.6,30.4c0.6,0.3,1.2,0.5,1.8,0.8c3.3,1.9,6.6,4.3,5.7,8.5c-0.9,4.3-4.8,5.1-8.7,5.1
			c-10.2,0.1-20.2-1.1-29.8-5.2c-16.2-6.9-24.2-19.2-24.3-36.7c-0.1-25.2,0.1-50.3-0.1-75.5c-0.1-8.7-1.9-17.2-6.4-24.8
			c-0.9-1.6-2.3-2.9-3.5-4.3c-0.4,0.2-0.9,0.3-1.3,0.5c0,1.9,0,3.8,0,5.7c0,40.5-0.1,81,0.2,121.5c0,6.4,1.1,13,3.1,19.1
			c1.3,4,4.7,7.6,7.9,10.5c3.2,2.9,6,5.6,4.6,10.1c-1.4,4.6-5.4,5.9-9.5,5.8c-11.5-0.4-21.6-5-30.6-12.1
			c-10.3-8.2-14.2-19.2-14.1-32.2c0.3-34.3,0.4-68.7,0.5-103c0-9.7,0.1-19.3,0-29c0-1.6,0-3.7-1-4.7c-1.1-1.3-3.4-2.6-4.9-2.3
			c-1.5,0.2-3.1,2.2-3.9,3.7c-0.6,1.2-0.2,2.9-0.2,4.4c0.1,43.7,0.3,87.3,0.2,131c-0.1,25-19.5,44.2-44.5,44.4c-4,0-8-0.3-9.3-4.9
			c-1.3-4.6,0.5-8.5,4.4-10.7c8.3-4.7,11.1-12.2,11.1-20.9c0.2-45,0.2-90,0.2-135c0-0.8-0.2-1.5-1.4-2.9c-1.6,2.1-4,4-4.6,6.3
			c-2.1,7.1-4.8,14.4-4.9,21.6c-0.6,24.8-0.2,49.7-0.2,74.5c0,25-12.6,39.9-37.4,43.8c-6.5,1-13.3,1.2-19.9,1
			c-2.3-0.1-6-2.4-6.3-4.2c-0.3-2.3,1.6-5.4,3.4-7.5c1.4-1.6,4.1-2.1,6.2-3.1c11.7-5.7,18.1-14.8,18.3-28c0.2-22.5,0.4-45,0.6-67.5
			c0-1-0.1-2-0.2-3.8c-6,0.9-11.8,1.9-17.6,2.5c-34.6,3.6-65.3-4.5-86-39.3c-4.4-7.4-8.7-15-13.4-22.2c-5.8-8.8-13.6-15.4-22.9-20.3
			c-4.4-2.3-8.7-4.9-12.5-8.1c-4.5-3.8-3.5-7.8,2.1-9.6c7.5-2.4,15.1-1.6,22.5,0.8c15.4,5,26.5,15.3,35.5,28.5
			c5.1,7.5,10.5,15.2,17.2,21.3c17.2,15.5,37.6,17.6,59.3,12c1.4-0.4,2.8-0.9,4.3-1.3c8.8-1.9,14.5-6.1,17-15.8
			c3.4-12.9,11.4-23.5,23-31.9c-11.4-1.9-22.2-3.4-32.8-5.6c-31.8-6.5-61.7-17.2-86.6-39.2c-9.8-8.7-18-18.8-24.4-30.2
			c-1.5-2.7-3.1-3.8-6.2-3.6c-20.4,1.7-40.8,2.9-61.2,4.9c-32.8,3.1-65.1,9.1-96.8,17.8c-1,0.3-2.1,0-3.2-0.7
			c53.2-15.7,107.8-22.1,163.7-24.3c-1.8-4.4-3.3-8.6-5.4-12.4c-0.6-1.1-3.1-1.7-4.7-1.7c-17.8-0.1-35.7-0.7-53.5,0
			c-20.3,0.8-40.5,2.5-60.7,4.5c-11.9,1.2-23.6,3.6-35.4,5.3c-2,0.3-4.1-0.3-6.1-0.5c0-0.3,0-0.7,0-1c0.7,0,1.3,0.1,2,0
			c38.5-7.5,77.3-10.8,116.5-11c13.3-0.1,26.6,0,40.5,0c-6.1-17.8-9.7-35.9-10.3-54.3c-0.5-15.1-1-30.4,0.9-45.3
			c3.2-26.6,14.9-49.8,32.5-69.9c1-1.2,1.5-3.6,1-5.1c-9.4-29.4-6.9-58.4,3.8-86.9c0.6-1.7,2.7-2.9,4.1-4.4c3.3,0,6.7,0,10,0
			c6.6,1.5,13.2,2.8,19.7,4.7c21.7,6.5,41,17.8,59.9,30c2,1.3,5.1,2.3,7.2,1.8c20.5-5.1,41.2-8.3,62.3-9.7
			c32.9-2.2,65.4,0.3,97.5,7.6c3.7,0.8,6.2,0,9.2-1.7c15.9-8.6,31.6-17.5,48.1-25c8.7-4,18.7-5.2,28.1-7.7c3.3,0,6.7,0,10,0
			c1.4,1.4,3.5,2.6,4.1,4.4c9.8,26,12.7,52.5,5.7,79.7c-0.8,3.1-0.1,4.8,1.9,6.9c15.2,15.9,26.1,34.3,32.3,55.5
			c9.3,32.1,6.1,64.6,2.4,97.1c-0.9,7.5-2.7,14.8-4.2,22.4c1,0.1,1.6,0.2,2.3,0.2c26.3,0.3,52.6,0.2,78.9,1.1
			c15.8,0.6,31.5,2.6,47.1,4.5c11.5,1.4,22.9,3.5,34.4,5.3C1259,334.3,1259,334.7,1259,335z M889.6,403.9c14.3,0,28.7,0.5,43-0.1
			c19.3-0.8,38.5-2.9,57.1-8.7c22.8-7.1,41.2-19.7,51-42.2c9-20.6,11.7-42.4,8-64.5c-5.6-33.1-37.7-60.7-70.8-60.9
			c-20.8-0.1-41.6,0.7-62.3,2.1c-25.3,1.8-50.5,0.6-75.8-0.4c-19.6-0.8-39.2-1.3-58.8-0.7c-12.3,0.4-23.8,4.9-33.4,12.8
			c-25.6,21.1-35.6,47.9-30.2,80.8c5.5,33,23.8,55.4,54.7,67.5c8.9,3.5,18.3,6.2,27.7,8.2C829.3,404.3,859.4,404.6,889.6,403.9z
			 M726.2,466.1c-2.3,2.2-4.2,3.2-4.6,4.7c-0.8,2.5,3.3,6.3,6.6,5.9c1.6-0.2,3-2.2,4.5-3.4C730.7,471.2,728.8,469.1,726.2,466.1z
			 M748.3,484.7c2.5-2.4,5.2-3.8,5.2-5.3c0-3.6-3.3-5-6.4-4.5c-1.8,0.3-3.4,2.2-5.1,3.4C743.8,480.2,745.7,482.1,748.3,484.7z
			 M708,452.5c-0.6,0.9-2,2.2-2.2,3.6c-0.5,3.2,3.4,7.3,6.4,6.7c1.4-0.3,3.4-2.5,3.3-3.7C715.2,455.5,712.8,453.2,708,452.5z
			 M770.8,485c2.5-2.5,4.2-4.2,5.9-5.8c-2-1.4-4-3.8-6-3.8c-1.9,0-3.9,2.5-5.8,3.9C766.6,480.9,768.2,482.5,770.8,485z M703.7,442.5
			c-3.3-2.8-5.4-4.7-7.8-6.3c-0.2-0.2-3,2.1-3,3.3c-0.1,3.5,1.7,6.2,5.4,6.5C699.6,446,700.9,444.3,703.7,442.5z M683.9,420.9
			c-1.7,2-3.4,3.6-3.3,3.9c1.4,2,3,3.8,4.9,5.3c0.2,0.2,3.2-2.2,3.1-2.4C687.5,425.6,686,423.7,683.9,420.9z M793.7,470.6
			c-0.5-0.5-1-1-1.6-1.5c-1.8,1.6-3.5,3.2-5.3,4.8c1.5,1.6,3,3.2,4.5,4.8c0.5-0.3,0.9-0.7,1.4-1C793,475.4,793.4,473,793.7,470.6z
			 M672.8,421c1.4-1.7,2.2-2.7,3-3.7c-1.4-1.1-2.7-2.6-4.4-3.2c-0.7-0.3-2.1,1.3-3.1,2C669.6,417.5,670.9,418.9,672.8,421z"/>
		<path class="st20" d="M889.6,403.9c-30.2,0.8-60.3,0.5-90-6c-9.4-2.1-18.7-4.7-27.7-8.2c-30.9-12.1-49.2-34.5-54.7-67.5
			c-5.4-32.9,4.6-59.7,30.2-80.8c9.7-8,21.2-12.5,33.4-12.8c19.6-0.6,39.2-0.2,58.8,0.7c25.3,1,50.5,2.2,75.8,0.4
			c20.7-1.5,41.6-2.2,62.3-2.1c33.1,0.2,65.2,27.8,70.8,60.9c3.8,22.1,1.1,43.9-8,64.5c-9.9,22.5-28.2,35.1-51,42.2
			c-18.6,5.8-37.8,7.9-57.1,8.7C918.3,404.3,903.9,403.9,889.6,403.9z M953.2,306.5c-0.1,10.2,2.2,19,8.4,26.3
			c8.3,9.8,20.6,9.6,28.8-0.4c10.6-13,10.8-36.8,0.4-49.9c-8.8-11.1-21.9-11-30.3,0.4C955.1,290.1,952.9,298.4,953.2,306.5z
			 M773.2,304.7c0,11.7,2.1,20.3,8,27.6c8.6,10.6,21.3,10.4,29.7-0.4c10.2-13.2,10.2-35.9,0.1-49.1c-8.8-11.4-22.1-11.2-30.6,0.4
			C775.2,290.3,773.2,298.4,773.2,304.7z M879.6,386.9c12.1,0.1,20-4.7,22.8-11.9c0.5-1.3-0.3-3.2-0.5-4.8c-1.2,0.8-3,1.3-3.7,2.5
			c-7.9,12.7-21.4,12.7-29.5-0.1c-0.7-1.1-2.5-1.6-3.7-2.3c-0.2,1.6-1,3.5-0.4,4.7C868.3,382.7,874.5,386.8,879.6,386.9z
			 M891.8,350.9c-0.1-4.7-3.5-8-8.3-7.9c-4.7,0-8.2,3.4-8.2,8.1c0,4.7,4,8.6,8.6,8.4C888.3,359.3,891.9,355.5,891.8,350.9z"/>
		<path class="st20" d="M726.2,466.1c2.6,2.9,4.5,5.1,6.5,7.2c-1.5,1.2-2.9,3.2-4.5,3.4c-3.4,0.4-7.4-3.4-6.6-5.9
			C722,469.4,723.9,468.4,726.2,466.1z"/>
		<path class="st20" d="M748.3,484.7c-2.6-2.6-4.4-4.5-6.3-6.4c1.7-1.2,3.3-3.1,5.1-3.4c3.1-0.5,6.4,0.9,6.4,4.5
			C753.5,480.9,750.8,482.3,748.3,484.7z"/>
		<path class="st20" d="M708,452.5c4.9,0.7,7.2,3,7.5,6.6c0.1,1.2-1.9,3.4-3.3,3.7c-3,0.6-6.9-3.6-6.4-6.7
			C706,454.7,707.4,453.4,708,452.5z"/>
		<path class="st20" d="M770.8,485c-2.5-2.5-4.2-4.1-5.9-5.8c1.9-1.4,3.9-3.9,5.8-3.9c2,0,4,2.4,6,3.8
			C775,480.8,773.3,482.5,770.8,485z"/>
		<path class="st20" d="M703.7,442.5c-2.8,1.8-4.1,3.5-5.4,3.4c-3.7-0.2-5.6-3-5.4-6.5c0-1.2,2.8-3.4,3-3.3
			C698.3,437.7,700.4,439.7,703.7,442.5z"/>
		<path class="st20" d="M683.9,420.9c2,2.8,3.6,4.7,4.7,6.8c0.1,0.2-2.8,2.6-3.1,2.4c-1.9-1.5-3.5-3.3-4.9-5.3
			C680.5,424.5,682.2,422.9,683.9,420.9z"/>
		<path class="st20" d="M793.7,470.6c-0.3,2.4-0.7,4.7-1,7.1c-0.5,0.3-0.9,0.7-1.4,1c-1.5-1.6-3-3.2-4.5-4.8
			c1.8-1.6,3.5-3.2,5.3-4.8C792.7,469.6,793.2,470.1,793.7,470.6z"/>
		<path class="st20" d="M672.8,421c-1.9-2-3.2-3.5-4.5-4.9c1.1-0.7,2.4-2.3,3.1-2c1.6,0.6,2.9,2.1,4.4,3.2
			C675,418.3,674.2,419.3,672.8,421z"/>
		<path d="M953.2,306.5c-0.2-8.1,1.9-16.4,7.2-23.6c8.4-11.4,21.5-11.5,30.3-0.4c10.4,13.2,10.2,36.9-0.4,49.9
			c-8.1,10-20.4,10.2-28.8,0.4C955.4,325.5,953.1,316.8,953.2,306.5z M967.8,298.4c4.6,0.1,6.7-2.2,7.2-5.9c0.5-3.4-2.9-6.9-6.5-6.7
			c-3.9,0.2-6.3,2.6-6.3,6.3C962.1,295.7,964.3,298.2,967.8,298.4z"/>
		<path d="M773.2,304.7c0-6.3,2-14.4,7.2-21.5c8.5-11.7,21.8-11.8,30.6-0.4c10.2,13.2,10.1,36-0.1,49.1c-8.4,10.8-21.1,11-29.7,0.4
			C775.3,324.9,773.2,316.3,773.2,304.7z M793.2,292c-0.1-3.9-3.8-7.3-7.5-7.1c-3.6,0.2-6.9,3.7-6.8,7.3c0,3.9,3.7,7.2,7.5,7
			C790.1,299.1,793.3,295.7,793.2,292z"/>
		<path d="M879.6,386.9c-5-0.1-11.3-4.2-15.1-11.9c-0.6-1.2,0.2-3.1,0.4-4.7c1.3,0.8,3,1.2,3.7,2.3c8.1,12.8,21.6,12.8,29.5,0.1
			c0.7-1.1,2.4-1.7,3.7-2.5c0.2,1.6,1,3.4,0.5,4.8C899.6,382.2,891.7,387,879.6,386.9z"/>
		<path d="M891.8,350.9c0.1,4.5-3.5,8.3-7.9,8.5c-4.6,0.2-8.6-3.7-8.6-8.4c0-4.7,3.5-8,8.2-8.1C888.2,343,891.7,346.3,891.8,350.9z"
			/>
		<path class="st20" d="M967.8,298.4c-3.5-0.2-5.6-2.6-5.6-6.3c0-3.7,2.4-6.1,6.3-6.3c3.5-0.2,6.9,3.3,6.5,6.7
			C974.5,296.1,972.4,298.5,967.8,298.4z"/>
		<path class="st20" d="M793.2,292c0.1,3.6-3.1,7-6.8,7.2c-3.9,0.2-7.5-3.2-7.5-7c0-3.6,3.2-7.1,6.8-7.3
			C789.4,284.7,793.1,288.2,793.2,292z"/>
	</g>
</g>
</svg>
